<svg xmlns="http://www.w3.org/2000/svg" viewBox="0 0 497 473.42"><defs><style>.cls-1{fill:#ffc74a;}</style></defs><g id="Layer_2" data-name="Layer 2"><g id="Layer_1-2" data-name="Layer 1"><path class="cls-1" d="M255.31,4.23l70.91,143.68a7.55,7.55,0,0,0,5.71,4.15l158.56,23.05a7.59,7.59,0,0,1,4.21,12.94L380,299.89a7.59,7.59,0,0,0-2.18,6.72l27.09,157.92a7.59,7.59,0,0,1-11,8L252,398a7.6,7.6,0,0,0-7.06,0L103.15,472.53a7.59,7.59,0,0,1-11-8l27.09-157.92a7.59,7.59,0,0,0-2.18-6.72L2.3,188.05a7.59,7.59,0,0,1,4.21-12.94l158.56-23.05a7.55,7.55,0,0,0,5.71-4.15L241.69,4.23A7.6,7.6,0,0,1,255.31,4.23Z"/></g></g></svg>